<?xml version="1.0" encoding="UTF-8" standalone="no"?>
<!DOCTYPE svg PUBLIC "-//W3C//DTD SVG 1.1//EN" "http://www.w3.org/Graphics/SVG/1.1/DTD/svg11.dtd">
<svg width="100%" height="100%" viewBox="0 0 320 320" version="1.1" xmlns="http://www.w3.org/2000/svg" xmlns:xlink="http://www.w3.org/1999/xlink" xml:space="preserve" xmlns:serif="http://www.serif.com/" style="fill-rule:evenodd;clip-rule:evenodd;stroke-linecap:round;stroke-linejoin:round;stroke-miterlimit:1.5;">
    <g id="Layer1">
        <g transform="matrix(1,0,0,1,-0.0216887,0.236154)">
            <path d="M13.179,285.717C13.307,285.465 291.095,284.268 291.126,283.889C291.156,283.509 293.677,259.351 293.675,258.99C293.674,258.629 297.016,254.186 288.458,253.076C279.901,251.965 203.719,251.011 203.675,250.6C203.631,250.188 128.944,251.872 129.189,251.622C129.435,251.372 42.803,254.621 42.504,254.626C42.206,254.631 40.166,252.104 34.596,258.773C29.025,265.442 23.618,273.929 23.063,273.906C22.509,273.883 21.271,277.169 20.927,277.229C20.584,277.289 14.6,277.798 14.556,277.544C14.512,277.289 12.735,286.592 13.179,285.717Z" style="stroke:black;stroke-width:1px;"/>
        </g>
        <path d="M200.026,250.534C199.781,249.743 190.093,236.378 189.753,236.174C189.414,235.97 196.332,235.665 196.205,235.744C196.078,235.822 186.699,227.76 177.023,226.016C167.347,224.271 145.584,223.382 145.506,223.382C145.429,223.382 69.115,224.261 68.545,223.97C67.975,223.678 66.571,226.964 66.014,227.173C65.457,227.381 46.311,227.233 46.11,227.529C45.908,227.825 39.276,231.028 45.11,231.204C50.944,231.379 88.795,233.305 88.826,233.008C88.856,232.712 117.912,234.563 117.972,234.897C118.031,235.23 117.554,249.4 117.422,250.534C117.291,251.669 108.283,252.151 108.263,252.223" style="stroke:black;stroke-width:1px;"/>
        <g transform="matrix(1.00156,0,0,1.00394,-0.413338,-0.986908)">
            <path d="M200.026,250.534C201.261,251.339 190.821,236.574 189.753,236.174C188.685,235.774 130.325,235.012 130.211,235.502C130.097,235.991 133.602,246.373 139.363,247.353C145.125,248.334 152.4,249.005 152.429,248.923C152.458,248.842 194.428,251.573 194.606,250.534C194.784,249.495 200.477,250.92 200.026,250.534Z" style="fill:white;stroke:black;stroke-width:1px;"/>
        </g>
        <path d="M182.059,226.962C182.479,227.236 171.506,13.073 171.446,13.079C171.387,13.084 176.923,11.765 176.749,11.799C176.575,11.832 189.086,231.015 189.003,230.288" style="stroke:black;stroke-width:1px;"/>
        <path d="M181.489,212.641C181.405,212.923 49.955,191.074 50.021,190.996C50.088,190.918 88.374,18.92 95.083,11.798C101.792,4.676 171.326,12.122 171.446,11.798" style="stroke:black;stroke-width:1px;"/>
    </g>
    <path d="M42.714,262.74C42.92,262.391 266.367,261.006 275.785,259.358" style="fill:none;stroke:white;stroke-width:1px;"/>
    <path d="M45.915,230.29C45.957,230.372 186.91,234.422 189.003,234.409" style="fill:none;stroke:white;stroke-width:0.5px;"/>
    <path d="M180.224,209.283C179.276,209.241 172.468,15.979 171.446,15.843" style="fill:none;stroke:white;stroke-width:0.5px;"/>
</svg>
